<svg width="96" height="96" viewBox="0 0 96 96" fill="none" xmlns="http://www.w3.org/2000/svg">
  <defs>
    <linearGradient id="fishBg" x1="14" y1="12" x2="82" y2="84" gradientUnits="userSpaceOnUse">
      <stop stop-color="#12344B"/>
      <stop offset="1" stop-color="#091A2D"/>
    </linearGradient>
    <linearGradient id="fishBody" x1="28" y1="32" x2="70" y2="62" gradientUnits="userSpaceOnUse">
      <stop stop-color="#7CE9E1"/>
      <stop offset="1" stop-color="#19A9B7"/>
    </linearGradient>
  </defs>
  <circle cx="48" cy="48" r="46" fill="url(#fishBg)"/>
  <circle cx="48" cy="48" r="43" stroke="#6DE4DF" stroke-opacity="0.24" stroke-width="2"/>
  <path d="M24 50.3C28.7 39.1 39.2 31.6 51 31.6C61.3 31.6 70.7 37.4 76 46.7C71.2 58.9 60.2 66.6 48.6 66.6C38.1 66.6 28.7 60.3 24 50.3Z" fill="url(#fishBody)"/>
  <path d="M26.5 50C33.7 54.4 38.6 61.5 40.4 69.2L21 63.8L26.5 50Z" fill="#0D7F8D"/>
  <path d="M26.5 47.8C33.7 43.4 38.6 36.3 40.4 28.6L21 34L26.5 47.8Z" fill="#41CDD0"/>
  <path d="M55.5 33.8C50.3 39.5 50 49.7 54.9 55.8C59.6 61.8 68.7 63.2 75.1 59.6" stroke="#C7FFF6" stroke-opacity="0.52" stroke-width="2.5" stroke-linecap="round"/>
  <circle cx="61.4" cy="44.7" r="3.6" fill="#081522"/>
  <circle cx="62.4" cy="43.5" r="1.1" fill="#E4FFFD"/>
  <path d="M43 41.8C45.3 39.7 47.6 38.8 49.5 39.3C52.1 40.1 52.7 43.3 50.5 45.1C48.5 46.7 45.5 46.8 43 45.7" stroke="#D9FFF7" stroke-opacity="0.4" stroke-width="1.8" stroke-linecap="round"/>
  <path d="M41 57.5C44.4 61.1 48.7 63 53.4 63.2" stroke="#C8FFF7" stroke-opacity="0.38" stroke-width="1.8" stroke-linecap="round"/>
</svg>
